# xmcd
#
# Track frame offsets: 
#        150
#        19622
#        36945
#        56260
#        75872
#        94780
#        114992
#        131675
#        151297
#        167285
#        186240
#        204905
#
# Disc length: 2927 seconds
#
# Revision: 2
# Processed by: cddbd v1.5.2PL0 Copyright (c) Steve Scherf et al.
# Submitted via: ExactAudioCopy v1.0b3
#
DISCID=830b6d0c
DTITLE=Smooth - You Been Played
DYEAR=1993
DGENRE=R&B
TTITLE0=Ready Or Not
TTITLE1=Female Mac
TTITLE2=You Been Played
TTITLE3=Lovin' You Is Simple
TTITLE4=You Are Through
TTITLE5=Let's Not Pimp
TTITLE6=You're Slippin'
TTITLE7=Get Inside My?
TTITLE8=Hey You
TTITLE9=Talk Too Much
TTITLE10=Dog You
TTITLE11=Hump And Dump
EXTD=
EXTT0=
EXTT1=
EXTT2=
EXTT3=
EXTT4=
EXTT5=
EXTT6=
EXTT7=
EXTT8=
EXTT9=
EXTT10=
EXTT11=
PLAYORDER=
